<?xml version="1.0" standalone="no"?>
<!DOCTYPE svg PUBLIC "-//W3C//DTD SVG 20010904//EN"
 "http://www.w3.org/TR/2001/REC-SVG-20010904/DTD/svg10.dtd">
<svg version="1.0" xmlns="http://www.w3.org/2000/svg"
 width="300.000000pt" height="300.000000pt" viewBox="0 0 300.000000 300.000000"
 preserveAspectRatio="xMidYMid meet">
<metadata>
Created by potrace 1.11, written by Peter Selinger 2001-2013
</metadata>
<g transform="translate(0.000000,300.000000) scale(0.100000,-0.100000)"
fill="#000000" stroke="none">
<path d="M1379 2773 c-105 -15 -117 -17 -125 -26 -4 -4 -15 -7 -24 -7 -27 0
-159 -68 -220 -114 -91 -67 -210 -205 -210 -243 0 -7 -4 -13 -9 -13 -8 0 -20
-23 -26 -50 -1 -3 -6 -16 -12 -30 -11 -25 -23 -56 -29 -75 -2 -5 -9 -47 -17
-92 -16 -93 -13 -207 7 -294 l13 -58 -31 -7 c-17 -5 -33 -8 -36 -9 -54 -11
-167 -65 -235 -113 -61 -42 -195 -179 -195 -198 0 -8 -4 -14 -9 -14 -21 0 -93
-172 -116 -280 -14 -65 -14 -242 -1 -305 56 -259 239 -476 480 -570 312 -122
634 -47 871 203 50 52 50 52 65 31 42 -61 152 -152 247 -202 54 -29 163 -70
163 -61 0 3 8 0 18 -5 23 -12 101 -22 177 -21 134 0 217 19 344 77 50 23 70
35 135 83 44 32 143 139 177 191 82 126 120 250 125 404 3 114 -9 194 -44 295
-34 97 -126 245 -145 233 -6 -3 -7 -1 -4 4 8 12 -78 95 -145 141 -74 51 -197
103 -277 118 -56 11 -63 15 -57 37 57 206 15 447 -108 632 -43 65 -181 205
-202 205 -7 0 -14 4 -16 8 -8 21 -161 92 -230 108 -10 2 -28 7 -40 10 -63 15
-181 18 -259 7z"/>
</g>
</svg>
